{"title":"Wolf Creek 2 (2013) HDRip Xvid Ac3-XYZ","uid":10003070,"size":1322671924,"categoryP":"video","categoryS":"movies","magnet":"?xt=urn:btih:06e9d6a3bda7738bc65990e510ca2d27866d731e&amp;dn=Wolf+Creek+2+%282013%29+HDRip+Xvid+Ac3-XYZ&amp;tr=udp%3A%2F%2Ftracker.openbittorrent.com%3A80&amp;tr=udp%3A%2F%2Fopen.demonii.com%3A1337&amp;tr=udp%3A%2F%2Ftracker.coppersurfer.tk%3A6969&amp;tr=udp%3A%2F%2Fexodus.desync.com%3A6969","seeders":2,"leechers":1,"uploader":"xxxlavalxxx","files":-1,"time":1398009605,"description":" &lt;a href=&quot;http://www.imdb.com/title/tt2004432/&quot; rel=&quot;nofollow&quot; target=&quot;_NEW&quot;&gt;http://www.imdb.com/title/tt2004432/&lt;/a&gt;\n\n\nThe outback once more becomes a place of horror as another unwitting tourist becomes the prey for crazed, serial-killing pig-shooter Mick Taylor.\n\nDirector: Greg Mclean\nWriters: Greg Mclean, Aaron Sterns\nStars: John Jarratt, Ryan Corr, Shannon Ashlyn\nGenres: Horror | Thriller\nCountry: Australia\nLanguage: English\n\n\n\nFormat : AVI\nFormat/Info : Audio Video Interleave\nFormat profile : OpenDML\nFile size : 1.23 GiB\nDuration : 1h 45mn\nOverall bit rate : 1 668 Kbps\nWriting application : Lavf55.7.100\n\nVideo\nID : 0\nFormat : MPEG-4 Visual\nFormat profile : Advanced Simple@L1\nFormat settings, BVOP : No\nFormat settings, QPel : No\nFormat settings, GMC : No warppoints\nFormat settings, Matrix : Default (H.263)\nCodec ID : XVID\nCodec ID/Hint : XviD\nDuration : 1h 45mn\nBit rate : 1 398 Kbps\nWidth : 640 pixels\nHeight : 272 pixels\nDisplay aspect ratio : 2.35:1\nFrame rate : 29.970 fps\nColor space : YUV\nChroma subsampling : 4:2:0\nBit depth : 8 bits\nScan type : Progressive\nCompression mode : Lossy\nBits/(Pixel*Frame) : 0.268\nStream size : 1.03 GiB (84%)\nWriting library : Lavc55.12.100\n\nAudio\nID : 1\nFormat : AC-3\nFormat/Info : Audio Coding 3\nMode extension : CM (complete main)\nFormat settings, Endianness : Big\nCodec ID : 2000\nDuration : 1h 45mn\nBit rate mode : Constant\nBit rate : 256 Kbps\nChannel(s) : 2 channels\nChannel positions : Front: L R\nSampling rate : 44.1 KHz\nBit depth : 16 bits\nCompression mode : Lossy\nStream size : 194 MiB (15%)\nAlignment : Aligned on interleaves\nInterleave, duration : 35 ms (1.04 video frame)\nInterleave, preload duration : 34 ms\n\n\nscreens\n &lt;a href=&quot;\nhttp://i.imgur.com/0NE4ZOQ.jpg&quot; rel=&quot;nofollow&quot; target=&quot;_NEW&quot;&gt;\nhttp://i.imgur.com/0NE4ZOQ.jpg&lt;/a&gt; &lt;a href=&quot;\nhttp://i.imgur.com/ocCHV5f.jpg&quot; rel=&quot;nofollow&quot; target=&quot;_NEW&quot;&gt;\nhttp://i.imgur.com/ocCHV5f.jpg&lt;/a&gt; &lt;a href=&quot;\nhttp://i.imgur.com/SOQvuZU.jpg&quot; rel=&quot;nofollow&quot; target=&quot;_NEW&quot;&gt;\nhttp://i.imgur.com/SOQvuZU.jpg&lt;/a&gt; &lt;a href=&quot;\nhttp://i.imgur.com/GcLcTBK.jpg&quot; rel=&quot;nofollow&quot; target=&quot;_NEW&quot;&gt;\nhttp://i.imgur.com/GcLcTBK.jpg&lt;/a&gt;","torrent":{"xt":"urn:btih:06e9d6a3bda7738bc65990e510ca2d27866d731e","amp;dn":"Wolf+Creek+2+%282013%29+HDRip+Xvid+Ac3-XYZ","amp;tr":["udp%3A%2F%2Ftracker.openbittorrent.com%3A80","udp%3A%2F%2Fopen.demonii.com%3A1337","udp%3A%2F%2Ftracker.coppersurfer.tk%3A6969","udp%3A%2F%2Fexodus.desync.com%3A6969"],"infoHash":"06e9d6a3bda7738bc65990e510ca2d27866d731e","infoHashBuffer":{"type":"Buffer","data":[6,233,214,163,189,167,115,139,198,89,144,229,16,202,45,39,134,109,115,30]},"announce":[],"urlList":[]}}